<?xml version="1.0" encoding="UTF-8" standalone="no"?>
<svg
   version="1.1"
   id="Layer_1"
   x="0px"
   y="0px"
   width="100%"
   viewBox="0 0 1280 1279"
   enable-background="new 0 0 1280 1279"
   xml:space="preserve"
   sodipodi:docname="logo.svg"
   inkscape:version="1.4 (86a8ad7, 2024-10-11)"
   xmlns:inkscape="http://www.inkscape.org/namespaces/inkscape"
   xmlns:sodipodi="http://sodipodi.sourceforge.net/DTD/sodipodi-0.dtd"
   xmlns="http://www.w3.org/2000/svg"
   xmlns:svg="http://www.w3.org/2000/svg"><defs
   id="defs188" /><sodipodi:namedview
   id="namedview188"
   pagecolor="#ffffff"
   bordercolor="#000000"
   borderopacity="0.25"
   inkscape:showpageshadow="2"
   inkscape:pageopacity="0.0"
   inkscape:pagecheckerboard="0"
   inkscape:deskcolor="#d1d1d1"
   inkscape:zoom="0.61219703"
   inkscape:cx="541.49234"
   inkscape:cy="633.78289"
   inkscape:window-width="1920"
   inkscape:window-height="1001"
   inkscape:window-x="-9"
   inkscape:window-y="-9"
   inkscape:window-maximized="1"
   inkscape:current-layer="Layer_1" />



























































































































































































<g
   id="g189"
   transform="translate(27.361327,-120.45403)"><path
     fill="#090706"
     opacity="1"
     stroke="none"
     d="m 725.04565,1001.0023 c -1.33093,9.7744 -2.18689,19.6469 -4.17944,29.2844 -1.11066,5.372 -4.11237,10.3529 -6.4613,15.8691 -5.43695,4.4923 -10.6745,8.6256 -15.91211,12.7589 -17.34748,2.5555 -29.50702,-5.788 -38.323,-19.4318 -5.71167,-8.8395 -9.9516,-18.6299 -15.02863,-28.6735 -2.77356,-9.6229 -5.3695,-18.56666 -7.43829,-25.69404 -3.64709,7.54791 -7.99542,16.54704 -12.34375,25.54624 -5.66284,4.1863 -10.77441,9.7616 -17.10211,12.2727 -13.61548,5.4033 -27.79913,-0.9297 -36.8833,-14.8382 -0.81506,-1.2479 -1.54639,-2.5506 -2.63678,-4.4366 -2.67578,-6.50923 -5.0315,-12.40974 -7.39923,-18.34041 -2.05414,5.17981 -4.11103,10.36658 -6.16791,15.55331 -5.68182,6.394 -10.4801,13.9892 -17.21899,18.946 -16.96527,12.4788 -37.62214,7.6749 -49.06284,-10.1167 -6.80167,-10.57737 -9.20139,-22.25712 -9.2684,-35.25468 -0.0928,-12.45166 2.14984,-23.75543 6.6044,-34.7052 0.96371,-2.36902 1.25094,-5.5097 0.59646,-7.96026 -4.41601,-16.53498 -9.26104,-32.95496 -13.72601,-49.47742 -0.77038,-2.85077 -1.78723,-3.66913 -4.71835,-3.47901 -21.32157,1.38239 -42.59027,0.83936 -63.66007,-2.96502 -31.05267,-5.60675 -60.57641,-15.19361 -86.45376,-34.02198 -1.23642,-0.89965 -2.79712,-1.35357 -4.20679,-2.01501 0,0 -0.024,0.14758 0.24671,-0.17004 -0.26105,-0.84095 -0.79288,-1.3642 -1.32468,-1.88746 -12.35883,-10.60687 -22.22653,-23.1007 -29.07504,-37.95098 -7.66642,-16.62378 -10.91724,-34.10743 -10.07236,-52.30927 0.35818,-7.71692 -0.87497,-14.40069 -5.1456,-21.30463 -11.62219,-18.78875 -22.36701,-38.12658 -33.23229,-57.37506 -7.42161,-13.14795 -1.57298,-25.27783 13.40761,-27.71679 6.6873,-1.08875 13.53653,-1.18299 21.0679,-1.66822 14.92814,0.89075 29.10062,1.72107 43.42841,2.6894 0.1553,0.13794 0.49075,-0.10962 0.88687,0.0406 7.01572,0.74744 13.62775,1.49201 20.26053,1.8324 1.5488,0.0795 3.37128,-0.93475 4.71997,-1.92132 6.15903,-4.50574 11.87302,-9.69806 18.32874,-13.70667 30.27664,-18.80035 64.23419,-25.60589 98.98855,-29.42816 25.16956,-2.76819 50.31201,-3.24554 75.42059,3.039 6.28992,-20.14044 17.29419,-37.08514 33.08106,-52.5379 -3.99487,0.91589 -6.55719,1.47418 -9.10504,2.09204 -19.70081,4.77771 -37.91516,1.64508 -54.52252,-10.17499 -3.07199,-2.1864 -6.21845,-4.26825 -9.28235,-6.7522 -5.68094,-8.80017 -11.41007,-17.24646 -17.16028,-26.0748 -2.866,-6.66546 -2.47788,-12.92715 0.59128,-18.93157 1.62085,-3.17099 3.88559,-6.01285 6.16757,-9.15979 10.44903,-8.12647 21.61923,-14.26215 33.72827,-18.65036 37.54505,-13.60614 76.7807,-18.12638 116.22009,-21.58417 20.89502,-1.83194 39.16315,3.60486 54.034,18.89752 0.57159,0.58783 1.31201,1.01157 2.10248,1.79626 2.78808,3.00654 5.43469,5.74109 8.10925,8.44809 7.17127,7.25824 14.35437,14.50467 21.65918,22.11441 2.91919,1.75321 5.65405,4.18778 8.51569,4.34736 8.57043,0.4779 17.19043,0.0662 26.05059,0.0743 0.43812,0.0924 0.6167,0.11239 1.01264,0.41586 1.39105,0.37433 2.5647,0.46512 4.14117,0.64187 2.17462,0.46906 3.94947,0.83909 5.7179,1.23755 7.21753,1.62653 14.43317,3.26169 21.92676,5.16431 1.53351,0.42865 2.78973,0.58661 4.04187,0.70819 -0.004,-0.0364 -0.0682,-0.001 0.085,0.26825 0.75097,0.40292 1.34887,0.53629 2.08789,0.73761 0.14123,0.068 0.45007,0.0142 0.74072,0.27716 14.63013,5.02112 29.15131,9.29871 43.27124,14.6377 29.19379,11.03875 54.95856,27.34521 75.79321,50.9964 2.51136,2.85095 6.29041,5.80462 9.82374,6.30712 10.61462,1.50959 21.39837,1.82978 32.54443,2.70765 7.77972,0.74554 15.13122,1.3974 22.83301,2.20703 15.15075,3.13434 25.12469,12.49597 32.90259,24.76306 20.0728,31.95874 40.0927,63.95581 53.4707,99.50061 7.7799,20.6712 13.0472,41.91955 12.3941,64.18451 -0.3165,10.78979 -2.3286,21.25097 -11.5711,28.59448 -7.8102,6.20538 -16.8221,6.80237 -26.0768,5.06073 -14.5712,-2.742 -27.7435,-9.09247 -40.96959,-16.76196 -1.284,-1.05707 -1.94238,-1.99365 -2.78607,-2.71283 -8.98114,-7.65467 -15.38013,-17.18201 -18.56995,-28.41413 -3.76086,-13.24316 -6.42468,-26.794 -9.83581,-40.14202 -1.7912,-7.00922 -4.16266,-13.87018 -6.5611,-21.74707 -1.05994,1.59387 -1.32788,1.83014 -1.38831,2.11114 -9.48114,44.08209 -34.45739,75.70331 -75.97088,93.70099 -12.14869,5.26684 -24.74921,9.49158 -36.88825,14.09741 2.66236,7.31043 5.96887,14.914 8.20111,22.82086 4.91962,17.42548 -0.95416,34.85871 -14.09967,43.60724 -7.4342,4.94751 -15.17004,4.38623 -21.01416,-2.39252 -3.41943,-3.96618 -6.58111,-8.56463 -8.39367,-13.4251 -4.46381,-11.96997 -8.37018,-24.17304 -11.88379,-36.45868 -1.25,-4.37092 -2.97705,-5.03907 -7.19233,-4.81299 -10.09857,0.54162 -20.23998,0.28857 -30.36425,0.34112 -4.12036,0.0214 -8.24097,0.004 -13.14789,0.004 -0.90857,17.41028 -1.82422,34.95642 -2.74017,52.50824 3.5896,0 6.62512,-0.37024 9.54016,0.0656 11.23602,1.6798 18.8435,8.96167 24.94696,17.6925 19.07013,27.27924 24.6726,57.99756 22.25415,90.62225 -2.56531,9.03791 -3.88648,18.68305 -7.94312,26.99294 -9.80737,20.0902 -31.05395,23.043 -46.98993,7.303 -3.18286,-3.1437 -5.88757,-6.7716 -9.18158,-10.61967 -4.68628,-9.01269 -9.00366,-17.5819 -12.34655,-24.21692 0,5.30732 -0.0834,12.5658 0.0496,19.82032 0.0412,2.24518 0.67083,4.47955 1.03106,6.71887 M 556.23724,856.93671 c -2.51202,1.22326 -5.02404,2.44653 -8.29168,3.77966 -1.41632,0.44586 -2.82801,0.90735 -4.24976,1.33514 -12.1828,3.66504 -24.28583,7.63318 -36.58005,10.87635 -8.23507,2.1723 -16.74228,3.31305 -25.25949,4.94055 0.39957,1.39654 0.78845,2.75561 0.54227,4.39728 -0.93451,1.64483 -2.78589,3.39453 -2.61224,4.91266 0.35958,3.14398 2.54541,5.17419 6.26895,5.57549 0.70202,3.67255 1.40408,7.34504 1.65658,11.61353 -3.25558,0.91492 -2.24225,3.05975 -1.81436,5.36896 0.67014,3.61682 3.16623,4.10095 6.37894,4.95202 0.8143,2.78778 1.6286,5.57551 2.79779,9.57819 7.72806,-8.16974 15.51727,-14.69788 26.95743,-16.37665 22.20184,-0.95819 31.94928,13.82801 38.79345,30.83124 3.69123,-8.1784 7.42517,-16.45148 11.76374,-25.01562 5.07623,-6.6308 10.98571,-12.2323 19.16619,-15.02436 -0.4353,-2.07769 -0.80114,-3.82409 -0.40057,-5.42688 3.06549,1.22949 4.32477,0.49298 2.89288,-2.80603 -1.57891,-3.63751 -3.66223,-7.09875 -4.85284,-10.85034 -1.25092,-3.94165 -3.5434,-5.25232 -7.6568,-5.25507 -1.61835,-3.76513 -3.23669,-7.53027 -4.13306,-11.43652 0.29975,-1.22748 1.25544,-2.87909 0.78418,-3.60797 -1.90289,-2.94318 -4.24578,-5.60181 -6.52203,-9.02985 -0.48389,-0.36621 -1.20392,-1.15521 -1.41675,-1.03637 -4.52264,2.52643 -8.98822,5.1549 -13.44818,7.77032 0,0 -6.7e-4,-0.0179 -0.76459,-0.0657 m 207.05353,-77.04316 c 12.05438,7.02558 23.31671,15.07844 33.11218,26.04627 1.86176,4.04803 4.11829,7.96619 5.50122,12.17169 2.69422,8.19379 4.40851,16.73395 7.45264,24.78125 2.73627,7.23371 6.03363,14.45252 10.3197,20.84979 4.7096,7.02942 10.92847,7.3075 17.59064,2.13892 5.41608,-4.20197 9.05151,-9.64777 10.77948,-16.32397 2.42004,-9.35041 1.42316,-18.55835 -1.8717,-27.4242 -6.33478,-17.04559 -14.96894,-32.82233 -32.92737,-39.77704 -11.95978,-4.63165 -24.79962,-6.99072 -37.93506,-10.74377 -10.24957,-0.94208 -20.49908,-1.8841 -30.74866,-2.82617 -0.1214,0.45819 -0.24279,0.91632 -0.36413,1.37451 4.26477,1.94916 8.5296,3.89837 13.16723,6.29706 0.53827,0.21014 1.07654,0.42022 1.89374,1.2304 1.19361,0.56971 2.38727,1.13941 4.03009,2.20526 m -32.27594,-61.14514 c 0.97913,1.05164 1.95825,2.10334 2.56177,3.83954 -1.51996,11.93268 -3.03992,23.86542 -4.54883,35.71173 31.70081,8.27692 62.51471,8.55695 93.51019,6.44922 0.0498,0.51264 0.0995,1.02527 0.14923,1.53784 -7.22674,1.90223 -14.45355,3.80439 -20.26257,5.33338 9.30268,5.21698 19.3949,10.87671 29.56702,17.23449 2.59613,4.75843 6.11749,6.56965 11.45654,4.14209 2.69647,-1.22607 5.72205,-1.71099 8.56568,-2.63336 19.76116,-6.4096 38.91332,-14.31524 54.94989,-27.78991 29.61578,-24.88471 42.32061,-57.58899 42.4696,-95.71271 0.004,-1.0376 0.14441,-2.07471 0.2876,-4.0094 9.20453,9.14123 15.59088,19.15356 19.12585,30.46594 4.40143,14.08496 7.4895,28.58124 11.11383,42.90772 3.61048,14.2713 6.95905,28.91485 18.857,38.87127 13.41407,11.22504 29.00217,18.23499 46.72957,19.12805 9.1576,0.46131 14.6938,-3.51232 16.9662,-12.30371 1.5199,-5.88 2.3935,-12.19354 2.0771,-18.23565 -1.3603,-25.98255 -9.4466,-50.20295 -20.3427,-73.6225 -12.6086,-27.10022 -28.5015,-52.31372 -44.1997,-77.65198 -7.8086,-12.60364 -18.53968,-20.22424 -33.65821,-20.92334 -11.47882,-0.53076 -22.95453,-1.16211 -34.43841,-1.54193 -12.03492,-0.39813 -22.23474,-4.24506 -30.40857,-13.60541 -13.51868,-15.48138 -29.90058,-27.36779 -48.11951,-36.82977 -22.7522,-11.81628 -47.09967,-19.15411 -71.66144,-25.93799 -17.37378,-4.79864 -34.7669,-9.03863 -53.09942,-7.11249 -7.85541,0.82532 -14.38269,-2.21316 -19.92481,-8.2662 -9.88824,-10.79993 -20.27136,-21.15064 -30.54889,-31.58939 -10.80792,-10.97745 -23.67035,-17.46054 -39.39337,-15.87146 -22.9812,2.3226 -45.94836,4.87476 -68.84704,7.89362 -17.85962,2.35449 -35.29377,6.84051 -52.06275,13.51742 -10.05972,4.0055 -19.98364,8.39917 -27.98984,16.06409 -6.99643,6.69821 -8.04211,11.64111 -3.30597,19.96353 2.94874,5.18146 6.16938,10.37415 10.1359,14.78046 13.95752,15.50507 31.08752,23.10205 52.25378,19.18237 21.77192,-4.03192 41.48175,-12.95746 59.65375,-25.46539 1.34839,-0.9281 2.85455,-2.36914 4.26508,-2.34339 8.65271,0.1579 17.29907,0.66968 25.94751,1.06373 -2.06385,1.6817 -4.2071,2.55035 -6.31647,3.49463 -26.37647,11.80773 -50.71503,26.50353 -69.9021,48.68029 -30.36243,35.09345 -34.04425,87.54462 -8.14026,125.72602 6.22589,9.17669 14.02332,17.30761 21.2915,25.75293 19.91211,23.13696 43.27259,41.95196 71.13904,54.61743 17.08002,7.76275 34.62659,14.49884 51.90473,21.67145 -3.0044,7.63189 -6.73011,15.82037 -9.46601,24.32714 -4.83679,15.039 -9.05603,30.27625 -13.56823,45.42029 -1.11499,3.74213 -0.64484,6.10211 3.34729,8.41559 4.34222,2.51636 8.13177,6.38519 11.38537,10.30859 10.80231,13.02692 17.18744,28.39356 22.41193,44.29633 1.10876,3.37488 2.11682,6.7829 3.15442,10.12121 0.65387,-10.11706 0.88543,-20.07104 2.03814,-29.91717 1.43103,-12.2229 5.18958,-23.70337 13.40247,-33.32672 0.88428,-1.03613 1.43079,-2.64099 1.52472,-4.02332 0.43994,-6.47784 0.57776,-12.97589 0.98749,-19.4563 0.94494,-14.9472 2.02472,-29.8858 2.9591,-44.83361 0.24152,-3.86444 1.87183,-4.81726 5.75971,-4.48218 11.60028,0.99969 23.24194,1.5509 34.87542,2.11279 3.02772,0.1463 6.08448,-0.30762 9.12787,-0.48584 0.12574,-0.41931 0.25141,-0.83862 0.37708,-1.25793 -4.15356,-3.20703 -8.30707,-6.41406 -12.93421,-10.18366 -13.13946,-8.43188 -26.26373,-16.78338 -41.56933,-21.06872 -11.78851,-3.30066 -23.75714,-6.42816 -34.97168,-11.21253 -24.41846,-10.41754 -45.01941,-26.15149 -60.83667,-47.73407 -1.3125,-1.79089 -2.20044,-3.89288 -3.28565,-5.85034 0.44269,-0.34338 0.88538,-0.68677 1.32807,-1.03015 24.95251,23.61908 53.51721,40.88928 85.64661,50.46173 2.71972,-12.08124 5.29528,-23.52222 8.37036,-35.37579 0.0386,-0.85553 0.0773,-1.71106 0.74176,-2.50684 0.41821,0.0273 0.83642,0.0546 1.38647,0.69824 m -118.14044,47.68732 c -21.98248,-14.31854 -39.11102,-33.74365 -56.3681,-53.1123 -20.65924,-23.18714 -30.39307,-50.17273 -29.56433,-81.99231 0.68872,-6.52857 1.37744,-13.05707 2.05987,-19.52631 -0.8938,-0.3584 -1.33002,-0.60321 -1.79785,-0.71075 -18.14606,-4.17292 -36.46237,-4.51477 -54.99298,-3.34333 -20.61783,1.30341 -40.97595,3.93506 -60.93958,9.19715 -25.53607,6.73095 -49.54437,16.49121 -68.5972,35.77227 -1.02829,1.04059 -3.15252,1.46558 -4.73733,1.4054 -5.80698,-0.22046 -11.60458,-0.7298 -17.40015,-1.19946 -10.91958,-0.88489 -21.8204,-2.17731 -32.75677,-2.63105 -11.3093,-0.46936 -22.68454,-0.68316 -33.96898,0.006 -8.93465,0.54541 -15.34769,4.33338 -8.22473,16.27899 12.94807,21.7146 25.36928,43.74415 37.89332,65.70899 0.80854,1.41803 0.99921,3.44342 0.83319,5.12256 -1.6199,16.38244 -0.74166,32.56879 4.67548,48.18542 9.48129,27.33283 28.25522,46.57392 53.60162,59.69086 32.56235,16.85114 67.59369,23.94391 103.91462,24.42706 25.16534,0.33478 49.95636,-3.28973 74.21255,-10.52221 35.16358,-10.48481 65.93445,-28.15497 91.27527,-54.80268 6.75696,-7.10553 12.84973,-14.92572 15.23608,-24.80359 0.35187,-1.45648 0.12165,-4.0086 -0.8103,-4.65594 -4.19293,-2.91254 -8.73602,-5.32099 -13.5437,-8.49463 m 81.07324,250.563 c 2.34918,-4.0352 3.91565,-2.2333 4.80072,0.8388 1.20728,4.19 2.04132,8.4876 3.03534,12.7389 0.68939,0.058 1.37879,0.1166 2.06818,0.1749 2.40594,-8.2028 5.32831,-16.2949 7.11853,-24.63 4.87555,-22.70043 3.35846,-45.3775 -1.96076,-67.78729 -4.33209,-18.25073 -10.50171,-35.83569 -22.85803,-50.47857 -5.45001,-6.45862 -11.67517,-13.06787 -20.89123,-11.53113 -9.72168,1.62097 -13.52308,10.17365 -16.19324,18.59894 -4.78491,15.09784 -5.68842,30.5506 -4.26508,46.35309 2.26343,25.12915 8.10559,49.21466 19.45252,71.77836 3.51428,6.9884 8.16839,13.4034 12.30072,20.0809 0.44122,-0.2243 0.88251,-0.4487 1.32373,-0.6732 0,-3.0723 -0.21088,-6.165 0.0825,-9.209 0.16491,-1.7115 1.16247,-3.3428 1.78491,-5.0103 1.04034,1.4384 2.61059,2.74 3.02319,4.3402 1.32648,5.144 2.20233,10.4029 3.29688,15.6081 0.88232,4.1959 4.33081,3.3325 6.7622,2.6524 1.26673,-0.3542 2.71534,-3.039 2.65778,-4.6193 -0.22351,-6.1321 -1.01849,-12.2431 -1.53882,-19.2258 M 637.00568,906.61737 c 1.71313,-5.37354 2.98059,-10.94275 5.23596,-16.07812 4.1477,-9.44416 9.31915,-18.15863 20.60449,-20.69861 0.81238,-0.1828 1.74219,-1.38501 1.9942,-2.28729 4.10254,-14.69062 7.94629,-29.45533 12.19434,-44.10291 2.19958,-7.58429 5.07538,-14.97241 7.56238,-22.20667 -15.9607,-6.65002 -31.55298,-13.14654 -47.29157,-19.70404 -4.1181,14.41828 -13.14801,26.086 -24.34821,35.97016 -9.58349,8.45758 -19.96325,16.01281 -29.98974,23.96857 -1.71961,1.3645 -3.83099,1.97052 -2.315,5.37622 7.10089,15.95227 13.72363,32.11676 20.70672,48.12274 0.67798,1.55395 2.46741,3.2304 4.06562,3.6701 6.85931,1.88715 12.61285,5.5279 16.81518,11.047 4.36908,5.73816 7.97083,12.06061 11.57575,17.61542 0.94665,-6.10224 2.01349,-12.97882 3.18988,-20.69257 m 95.1466,59.62225 c 4.98883,13.85645 11.18994,26.92054 23.4173,37.30988 0.47668,-5.2865 0.7041,-9.26526 1.28021,-13.19281 0.14746,-1.00598 1.39667,-1.8504 2.13977,-2.76898 0.70435,0.93536 1.86603,1.79559 2.03394,2.81903 0.72552,4.42108 1.49011,8.88159 1.60382,13.34396 0.10535,4.1341 2.42242,4.498 5.54864,4.4252 3.37085,-0.079 5.17682,-1.2281 4.8891,-5.0903 -0.32055,-4.30362 -0.18756,-8.66012 0.0614,-12.97549 0.0779,-1.34973 1.17211,-2.64075 1.80108,-3.95868 1.00214,1.26501 2.56226,2.3988 2.89661,3.8208 0.83874,3.56665 1.12274,7.26373 1.62921,10.90847 0.61725,0.1405 1.2345,0.2809 1.85174,0.4214 2.60712,-6.35471 6.01172,-12.50748 7.68183,-19.09959 6.82928,-26.95587 3.28955,-53.15631 -7.43109,-78.4801 -4.44361,-10.49658 -10.35449,-20.20337 -20.08997,-26.80359 -9.93414,-6.73492 -19.98669,-5.14459 -26.271,4.99799 -3.60613,5.82013 -6.44378,12.50506 -7.92968,19.17865 -4.85834,21.81915 -2.12616,43.30108 4.88708,65.14416 M 577.08722,916.65185 c -19.55402,27.82184 -11.33991,77.37055 4.83313,88.32365 0.39294,-3.5334 0.62775,-6.80375 1.18786,-10.01737 0.18244,-1.04694 1.21387,-1.94592 1.85706,-2.91254 0.69568,0.92127 1.84479,1.76862 2.00922,2.77655 0.74774,4.58374 1.13556,9.22476 1.81116,13.82186 0.70532,4.7991 7.74926,8.8702 12.04077,6.825 1.01251,-0.4826 1.96978,-2.236 1.99475,-3.4248 0.0833,-3.9741 -0.44501,-7.9606 -0.36859,-11.9353 0.0324,-1.68825 0.98364,-3.35896 1.51733,-5.03767 1.27478,1.36786 3.16486,2.53125 3.70105,4.14459 1.26276,3.79988 1.87994,7.81438 2.92004,12.46578 10.4458,-7.905 15.24463,-18.14168 18.44977,-29.29159 3.63941,-12.66101 3.96027,-25.55987 1.97437,-38.5238 -1.76898,-11.5473 -5.63031,-22.27405 -13.5047,-31.14374 -5.08814,-5.73126 -11.04553,-10.21515 -19.28461,-9.76526 -9.28735,0.50702 -15.47199,6.12201 -21.13861,13.69464 m -82.70383,22.32252 c -12.8949,26.05059 -4.46121,60.4458 10.48319,68.25703 0.39541,-2.1543 0.5614,-4.3458 1.26037,-6.3517 0.38007,-1.0907 1.66596,-1.86566 2.54328,-2.78302 1.03436,1.02057 2.74106,1.91282 2.96536,3.08802 0.49222,2.5784 0.33517,5.303 0.25839,7.9626 -0.11554,4.0014 2.64527,3.9679 5.401,4.0732 2.70215,0.1033 4.94226,-0.032 4.89698,-3.7957 -0.0417,-3.4684 0.36004,-6.9642 0.86816,-10.40338 0.14593,-0.98803 1.33807,-1.82147 2.05048,-2.72583 0.91705,0.76227 1.89617,1.46503 2.71594,2.3205 0.2713,0.28314 0.0579,0.98077 0.19275,1.45281 0.83911,2.9389 1.71417,5.8674 2.57721,8.7993 2.60022,-1.8913 5.61535,-3.4061 7.73077,-5.7373 10.70471,-11.79728 15.62811,-26.09562 16.55151,-41.72972 0.83551,-14.14465 -1.8247,-27.50488 -11.36657,-38.70251 -8.25959,-9.69287 -21.28937,-11.72229 -31.89246,-4.8681 -7.76504,5.01953 -13.24725,12.01147 -17.23636,21.1438 z"
     id="path11" /><path
     fill="#fde9c8"
     opacity="1"
     stroke="none"
     d="m 728.38708,720.9696 c -2.57556,11.44098 -5.15112,22.88196 -7.87084,34.9632 -32.1294,-9.57245 -60.6941,-26.84265 -85.64661,-50.46173 -0.44269,0.34338 -0.88538,0.68677 -1.32807,1.03015 1.08521,1.95746 1.97315,4.05945 3.28565,5.85034 15.81726,21.58258 36.41821,37.31653 60.83667,47.73407 11.21454,4.78437 23.18317,7.91187 34.97168,11.21253 15.3056,4.28534 28.42987,12.63684 41.2962,21.43158 -16.46203,-1.17115 -32.83832,-1.64484 -48.79962,-4.46619 -30.54718,-5.39954 -59.33905,-16.14142 -85.79645,-32.60388 -26.72857,-16.63135 -49.39959,-37.25427 -63.55163,-65.98786 -13.84522,-28.11053 -15.25434,-56.55944 -1.16394,-84.9884 11.78479,-23.7771 31.26721,-39.77313 54.39856,-51.66461 21.83734,-11.22614 45.16272,-17.3269 69.52496,-20.26813 21.65241,-2.61401 43.21613,-2.29272 64.70807,0.50025 26.00885,3.37994 51.1607,10.26056 75.12769,21.08551 30.64428,13.84088 57.52423,32.6806 78.13513,59.65118 13.32312,17.43408 21.98706,36.90839 23.41827,58.96381 1.84351,28.40741 -8.40027,52.46215 -28.11633,72.61895 -16.89814,17.2757 -37.56098,28.41382 -60.21778,36.14753 -6.53369,2.23022 -13.1231,4.29699 -19.68701,6.43872 -10.09216,-5.65979 -20.18438,-11.31952 -29.48706,-16.5365 5.80902,-1.52899 13.03583,-3.43115 20.26257,-5.33338 -0.0497,-0.51257 -0.0995,-1.0252 -0.14923,-1.53784 -30.99548,2.10773 -61.80938,1.8277 -93.51019,-6.44922 1.50891,-11.84631 3.02887,-23.77905 5.13763,-36.05542 8.60895,0.87354 16.60102,2.82257 24.65601,3.13129 11.24085,0.43097 22.28656,-1.1778 31.30109,-9.07684 5.83124,-5.10968 7.75006,-12.48987 5.38482,-19.87659 -2.38464,-7.44751 -7.29736,-12.95978 -13.21142,-17.70844 -13.10553,-10.52313 -28.39173,-15.88147 -44.85095,-17.487 -12.3028,-1.20007 -24.65082,-0.73675 -35.73951,6.85956 -1.14678,0.85596 -2.00012,1.66083 -3.14947,2.651 -4.27936,3.9126 -5.8971,8.50873 -5.62073,13.9325 0.453,8.89081 5.13428,15.31824 11.80634,20.67755 0.0863,-0.0233 -0.0908,-0.0483 0.0494,0.25232 6.40673,4.25421 12.68139,8.19495 18.93408,12.1701 1.58966,1.01056 3.10986,2.13031 4.66198,3.19989 M 667.9421,666.76355 c 3.99603,-1.08691 8.1427,-1.79657 11.96356,-3.32221 24.18341,-9.65588 32.4541,-37.28723 17.66852,-58.58868 -14.9729,-21.57141 -51.73987,-23.0224 -68.70197,-2.71136 -14.18664,16.98754 -13.12524,38.00457 2.81928,53.20105 9.90967,9.44476 22.01159,12.4674 36.25061,11.4212 m 155.28332,-3.0495 c -3.46533,3.74274 -4.50732,8.00305 -2.60015,12.81006 1.74707,4.40375 5.0794,6.86792 9.75268,7.38013 5.05048,0.55352 10.22894,-2.54438 12.0578,-7.04749 1.98352,-4.88367 0.49927,-10.74615 -3.54102,-13.98737 -4.40313,-3.5324 -9.45648,-3.41412 -15.66931,0.84467 z"
     id="path49" /><path
     fill="#b57d4e"
     opacity="1"
     stroke="none"
     d="m 831.95166,788.50562 c 6.52393,-2.49073 13.11334,-4.5575 19.64703,-6.78772 22.6568,-7.73371 43.31964,-18.87183 60.21778,-36.14753 19.71606,-20.1568 29.95984,-44.21154 28.11633,-72.61895 -1.43121,-22.05542 -10.09515,-41.52973 -23.41827,-58.96381 -20.6109,-26.97058 -47.49085,-45.8103 -78.13513,-59.65118 -23.96699,-10.82495 -49.11884,-17.70557 -75.12769,-21.08551 -21.49194,-2.79297 -43.05566,-3.11426 -64.70807,-0.50025 -24.36224,2.94123 -47.68762,9.04199 -69.52496,20.26813 -23.13135,11.89148 -42.61377,27.88751 -54.39856,51.66461 -14.0904,28.42896 -12.68128,56.87787 1.16394,84.9884 14.15204,28.73359 36.82306,49.35651 63.55163,65.98786 26.4574,16.46246 55.24927,27.20434 85.79645,32.60388 15.9613,2.82135 32.33759,3.29504 49.03638,4.7475 4.66351,3.12543 8.81702,6.33246 12.97058,9.53949 -0.12567,0.41931 -0.25134,0.83862 -0.37708,1.25793 -3.04339,0.17822 -6.10015,0.63214 -9.12787,0.48584 -11.63348,-0.56189 -23.27514,-1.1131 -34.87542,-2.11279 -3.88788,-0.33508 -5.51819,0.61774 -5.75971,4.48218 -0.93438,14.94781 -2.01416,29.88641 -2.9591,44.83361 -0.40973,6.48041 -0.54755,12.97846 -0.98749,19.4563 -0.0939,1.38233 -0.64044,2.98719 -1.52472,4.02332 -8.21289,9.62335 -11.97144,21.10382 -13.40247,33.32672 -1.15271,9.84613 -1.38427,19.80011 -2.03814,29.91717 -1.0376,-3.33831 -2.04566,-6.74633 -3.15442,-10.12121 -5.22449,-15.90277 -11.60962,-31.26941 -22.41193,-44.29633 -3.2536,-3.9234 -7.04315,-7.79223 -11.38537,-10.30859 -3.99213,-2.31348 -4.46228,-4.67346 -3.34729,-8.41559 4.5122,-15.14404 8.73144,-30.38129 13.56823,-45.42029 2.7359,-8.50677 6.46161,-16.69525 9.46601,-24.32714 -17.27814,-7.17261 -34.82471,-13.9087 -51.90473,-21.67145 -27.86645,-12.66547 -51.22693,-31.48047 -71.13904,-54.61743 -7.26818,-8.44532 -15.06561,-16.57624 -21.2915,-25.75293 -25.90399,-38.1814 -22.22217,-90.63257 8.14026,-125.72602 19.18707,-22.17676 43.52563,-36.87256 69.9021,-48.68029 2.10937,-0.94428 4.25262,-1.81293 6.31647,-3.49463 -8.64844,-0.39405 -17.2948,-0.90583 -25.94751,-1.06373 -1.41053,-0.0258 -2.91669,1.41529 -4.26508,2.34339 -18.172,12.50793 -37.88183,21.43347 -59.65375,25.46539 -21.16626,3.91968 -38.29626,-3.6773 -52.25378,-19.18237 -3.96652,-4.40631 -7.18716,-9.599 -10.1359,-14.78046 -4.73614,-8.32242 -3.69046,-13.26532 3.30597,-19.96353 8.0062,-7.66492 17.93012,-12.05859 27.98984,-16.06409 16.76898,-6.67691 34.20313,-11.16293 52.06275,-13.51742 22.89868,-3.01886 45.86584,-5.57102 68.84704,-7.89362 15.72302,-1.58908 28.58545,4.89401 39.39337,15.87146 10.27753,10.43875 20.66065,20.78946 30.54889,31.58939 5.54212,6.05304 12.0694,9.09152 19.92481,8.2662 18.33252,-1.92614 35.72564,2.31385 53.09942,7.11249 24.56177,6.78388 48.90924,14.12171 71.66144,25.93799 18.21893,9.46198 34.60083,21.34839 48.11951,36.82977 8.17383,9.36035 18.37365,13.20728 30.40857,13.60541 11.48388,0.37982 22.95959,1.01117 34.43841,1.54193 15.11853,0.6991 25.84961,8.3197 33.65821,20.92334 15.6982,25.33826 31.5911,50.55176 44.1997,77.65198 10.8961,23.41955 18.9824,47.63995 20.3427,73.6225 0.3164,6.04211 -0.5572,12.35565 -2.0771,18.23565 -2.2724,8.79139 -7.8086,12.76502 -16.9662,12.30371 -17.7274,-0.89306 -33.3155,-7.90301 -46.72957,-19.12805 -11.89795,-9.95642 -15.24652,-24.59997 -18.857,-38.87127 -3.62433,-14.32648 -6.7124,-28.82276 -11.11383,-42.90772 -3.53497,-11.31238 -9.92132,-21.32471 -19.12585,-30.46594 -0.14319,1.93469 -0.28351,2.9718 -0.2876,4.0094 -0.14899,38.12372 -12.85382,70.828 -42.4696,95.71271 -16.03657,13.47467 -35.18873,21.38031 -54.94989,27.78991 -2.84363,0.92237 -5.86921,1.40729 -8.56568,2.63336 -5.33905,2.42756 -8.86041,0.61634 -11.49652,-4.49108 M 523.18127,528.79889 c -1.46081,0.7185 -2.92163,1.43707 -4.38244,2.15558 0.18847,0.8634 0.37701,1.72674 0.56555,2.59015 5.83215,0 11.72565,0.54211 17.48407,-0.10944 13.25775,-1.49994 24.97003,-7.97833 36.89142,-13.21295 15.50958,-6.81018 31.56775,-10.31043 48.18548,-12.28324 6.57557,-0.78063 13.08063,-2.15511 19.6178,-3.25921 -0.004,-0.45062 -0.009,-0.90125 -0.0134,-1.35187 -2.32336,-0.56332 -4.76434,-0.83935 -6.95178,-1.7348 -20.24469,-8.28726 -39.37329,-4.83057 -58.17547,4.86188 -12.25562,6.31778 -24.71991,12.26333 -37.3122,17.87887 -4.73407,2.11121 -10.09357,2.82007 -15.90906,4.46503 m 485.87826,230.69269 c -0.3281,-1.10797 -0.6771,-2.21021 -0.9808,-3.32477 -2.3797,-8.73456 -5.0086,-17.41217 -7.037,-26.22772 -1.44206,-6.26691 -1.72026,-12.8006 -3.14665,-19.07227 -2.05493,-9.03546 -4.70013,-17.93597 -7.05841,-26.90326 -4.22638,-16.07074 -17.341,-23.8388 -32.11517,-25.4776 2.19183,2.39282 4.00714,4.22131 5.6463,6.19592 3.47046,4.18049 8.15222,7.93494 10.01214,12.76026 4.88501,12.67377 8.79773,25.74847 12.58155,38.81293 3.59985,12.42901 5.03686,25.50824 10.83307,37.26745 2.51267,5.09741 5.55897,10.01441 12.31577,12.7367 -0.3873,-2.60096 -0.6394,-4.29334 -1.0508,-6.76764 z"
     id="path50" /><path
     fill="#f2f2f2"
     opacity="1"
     stroke="none"
     d="m 526.82019,632.2417 c -0.70697,30.909 9.02686,57.89459 29.6861,81.08173 17.25708,19.36865 34.38562,38.79376 56.11859,53.45776 -15.42389,-1.89197 -30.42517,-2.36218 -44.7425,4.43237 14.68732,-0.79846 29.03412,0.87384 44.12824,4.43762 -2.88556,3.81653 -5.45056,6.82251 -7.56226,10.11884 -1.8424,2.8761 -3.62078,3.43665 -6.96759,2.21356 -13.50549,-4.93561 -27.19745,-6.34155 -38.46472,-4.10132 13.35816,3.49085 26.16205,5.67243 38.24805,13.78528 -4.64154,4.30713 -8.65845,8.03461 -12.77991,11.85919 -11.43835,-9.45208 -23.43811,-16.56817 -38.29388,-17.30999 11.78521,5.24975 23.75763,10.17321 31.09344,22.08679 -20.16754,20.02331 -43.88342,32.92785 -70.64526,40.42486 -24.16535,6.76966 -48.9014,7.6001 -73.77652,6.46381 -19.85953,-0.90717 -39.39337,-3.5907 -58.21967,-10.44043 -4.72925,-1.72064 -6.57419,-4.20197 -5.37179,-9.23145 1.6196,-6.77435 2.83609,-13.64514 4.47677,-21.70916 -7.39785,7.14532 -9.91464,15.27887 -11.0744,24.3714 -1.39154,-0.60962 -2.49258,-0.94593 -3.44122,-1.52997 -11.48184,-7.06824 -12.56415,-7.33771 -4.44238,-20.33936 2.54888,-4.08038 5.61877,-7.83533 7.2005,-10.01611 -8.76087,1.3147 -16.10535,8.30103 -21.23719,19.1449 -3.66824,-3.24195 -7.02569,-6.14276 -10.30481,-9.12958 -2.37228,-2.16089 -2.73846,-4.54181 -0.12286,-6.7699 3.7753,-3.21594 7.3923,-6.72143 11.55188,-9.35205 3.81274,-2.41125 8.2554,-3.82629 12.42053,-5.6803 -2.58655,-0.5567 -5.19861,-0.81134 -7.35702,0.0589 -7.22879,2.91461 -14.62262,5.67139 -21.31476,9.58142 -4.84427,2.83039 -7.29706,1.82508 -9.94107,-2.36963 -12.63013,-20.03711 -16.27228,-42.37048 -15.94531,-65.42572 0.19445,-13.71057 6.40011,-25.75671 14.11697,-36.82653 16.78024,-24.07136 39.06781,-42.07282 63.92175,-57.14112 5.41791,-3.28473 11.43537,-3.27142 16.78952,-0.5105 7.64814,3.94379 14.91547,8.65845 22.18427,13.29645 7.41827,4.73334 14.3714,10.25415 22.02475,14.54431 8.0141,4.49237 12.76303,2.93524 17.75757,-4.65179 8.14459,-12.37213 16.33786,-24.72205 24.06408,-37.35437 2.64035,-4.3169 5.80286,-6.23645 10.55848,-5.6983 11.89504,1.346 23.77667,2.81103 35.66363,4.22839 m -62.67667,189.91083 c -0.57946,-3.27283 -1.05059,-6.56958 -1.76883,-9.81171 -0.72409,-3.26843 0.5366,-4.70148 3.48362,-6.40198 9.47644,-5.46808 19.39944,-10.61383 27.64648,-17.64715 10.43707,-8.90094 13.47485,-24.45728 -5.8313,-30.41614 -8.74734,-2.69989 -18.23645,-3.95477 -27.41348,-4.08038 -13.89551,-0.19025 -25.98999,5.22467 -35.20386,16.00634 -5.13199,6.00519 -5.38547,12.36878 -0.5347,18.6203 2.1995,2.83466 4.9209,5.63459 8.01905,7.32782 7.41406,4.05207 15.20858,7.40436 22.80709,11.12574 1.34168,0.6571 3.42411,1.61096 3.55674,2.6358 0.91009,7.03296 1.39206,14.12128 2.03396,21.44397 -20.78744,0.96698 -40.20279,-3.19721 -58.44284,-12.98236 3.56977,5.638 15.99881,12.73749 28.27411,15.85815 33.62064,8.547 63.57562,0.1499 90.91733,-19.99298 -17.83459,7.22266 -35.34296,15.33917 -55.24411,16.42377 -0.74579,-2.53748 -1.44122,-4.90363 -2.29926,-8.10919 m 71.5521,-85.59424 c -1.18591,-6.92041 -4.63544,-10.4054 -10.00574,-10.10846 -4.70978,0.26044 -8.23547,4.10724 -8.55365,9.33301 -0.34564,5.67505 3.32257,10.58477 8.36267,11.19323 5.42181,0.65442 8.86926,-2.58917 10.19672,-10.41778 m -150.10135,6.34448 c -1.53333,0.55786 -3.22928,0.86237 -4.56879,1.72211 -3.71368,2.38397 -5.37247,7.89587 -3.72574,12.43085 1.48969,4.10235 4.52637,6.75518 8.952,6.64965 4.16928,-0.0994 7.08905,-2.66473 8.39868,-6.63482 2.2656,-6.8678 -1.02768,-12.40052 -9.05615,-14.16779 z"
     id="path51" /><path
     fill="#4b4b4b"
     opacity="1"
     stroke="none"
     d="m 526.8811,631.78638 c -11.94787,-0.96204 -23.8295,-2.42707 -35.72454,-3.77307 -4.75562,-0.53815 -7.91813,1.3814 -10.55848,5.6983 -7.72622,12.63232 -15.91949,24.98224 -24.06408,37.35437 -4.99454,7.58703 -9.74347,9.14416 -17.75757,4.65179 -7.65335,-4.29016 -14.60648,-9.81097 -22.02475,-14.54431 -7.2688,-4.638 -14.53613,-9.35266 -22.18427,-13.29645 -5.35415,-2.76092 -11.37161,-2.77423 -16.78952,0.5105 -24.85394,15.0683 -47.14151,33.06976 -63.92175,57.14112 -7.71686,11.06982 -13.92252,23.11596 -14.11697,36.82653 -0.32697,23.05524 3.31518,45.38861 15.94531,65.42572 2.64401,4.19471 5.0968,5.20002 9.94107,2.36963 6.69214,-3.91003 14.08597,-6.66681 21.31476,-9.58142 2.15841,-0.87024 4.77047,-0.6156 7.35702,-0.0589 -4.16513,1.85401 -8.60779,3.26905 -12.42053,5.6803 -4.15958,2.63062 -7.77658,6.13611 -11.55188,9.35205 -2.6156,2.22809 -2.24942,4.60901 0.12286,6.7699 3.27912,2.98682 6.63657,5.88763 10.30481,9.12958 5.13184,-10.84387 12.47632,-17.8302 21.23719,-19.1449 -1.58173,2.18078 -4.65162,5.93573 -7.2005,10.01611 -8.12177,13.00165 -7.03946,13.27112 4.44238,20.33936 0.94864,0.58404 2.04968,0.92035 3.44122,1.52997 1.15976,-9.09253 3.67655,-17.22608 11.0744,-24.3714 -1.64068,8.06402 -2.85717,14.93481 -4.47677,21.70916 -1.2024,5.02948 0.64254,7.51081 5.37179,9.23145 18.8263,6.84973 38.36014,9.53326 58.21967,10.44043 24.87512,1.13629 49.61117,0.30585 73.77652,-6.46381 26.76184,-7.49701 50.47772,-20.40155 70.64526,-40.42486 -7.33581,-11.91358 -19.30823,-16.83704 -31.09344,-22.08679 14.85577,0.74182 26.85553,7.85791 38.29388,17.30999 4.12146,-3.82458 8.13837,-7.55206 12.77991,-11.85919 -12.086,-8.11285 -24.88989,-10.29443 -38.24805,-13.78528 11.26727,-2.24023 24.95923,-0.83429 38.46472,4.10132 3.34681,1.22309 5.12519,0.66254 6.96759,-2.21356 2.1117,-3.29633 4.6767,-6.30231 7.56226,-10.11884 -15.09412,-3.56378 -29.44092,-5.23608 -44.12824,-4.43762 14.31733,-6.79455 29.31861,-6.32434 44.93787,-4.14062 4.86182,2.53643 9.40491,4.94488 13.59784,7.85742 0.93195,0.64734 1.16217,3.19946 0.8103,4.65594 -2.38635,9.87787 -8.47912,17.69806 -15.23608,24.80359 -25.34082,26.64771 -56.11169,44.31787 -91.27527,54.80268 -24.25619,7.23248 -49.04721,10.85699 -74.21255,10.52221 -36.32093,-0.48315 -71.35227,-7.57592 -103.91462,-24.42706 -25.3464,-13.11694 -44.12033,-32.35803 -53.60162,-59.69086 -5.41714,-15.61663 -6.29538,-31.80298 -4.67548,-48.18542 0.16602,-1.67914 -0.0247,-3.70453 -0.83319,-5.12256 -12.52404,-21.96484 -24.94525,-43.99439 -37.89332,-65.70899 -7.12296,-11.94561 -0.70992,-15.73358 8.22473,-16.27899 11.28444,-0.68902 22.65968,-0.47522 33.96898,-0.006 10.93637,0.45374 21.83719,1.74616 32.75677,2.63105 5.79557,0.46966 11.59317,0.979 17.40015,1.19946 1.58481,0.0602 3.70904,-0.36481 4.73733,-1.4054 19.05283,-19.28106 43.06113,-29.04132 68.5972,-35.77227 19.96363,-5.26209 40.32175,-7.89374 60.93958,-9.19715 18.53061,-1.17144 36.84692,-0.82959 54.99298,3.34333 0.46783,0.10754 0.90405,0.35235 1.79785,0.71075 -0.68243,6.46924 -1.37115,12.99774 -2.12073,19.98157 M 267.46112,670 c -0.59332,-0.58154 -1.08743,-1.37524 -1.79745,-1.70727 -2.82749,-1.32221 -5.72229,-2.50049 -8.5922,-3.73206 0.25913,3.58966 0.5152,7.17956 0.78845,10.76813 0.0108,0.14068 0.19922,0.26092 0.28144,0.40411 3.21948,5.60669 6.28314,11.30982 9.68716,16.80194 5.97144,9.63446 12.15125,19.13977 18.69119,29.40118 3.25019,-7.11694 5.75446,-13.55712 9.08973,-19.53356 1.90185,-3.40796 1.29968,-5.34809 -1.27387,-7.68128 C 285.4938,686.70502 276.74823,678.58282 267.46112,670 Z"
     id="path52" /><path
     fill="#b87842"
     opacity="1"
     stroke="none"
     d="m 693.91669,1017.4305 c 0.55127,6.5509 1.34625,12.6619 1.56976,18.794 0.0576,1.5803 -1.39105,4.2651 -2.65778,4.6193 -2.43139,0.6801 -5.87988,1.5435 -6.7622,-2.6524 -1.09455,-5.2052 -1.9704,-10.4641 -3.29688,-15.6081 -0.4126,-1.6002 -1.98285,-2.9018 -3.02313,-4.3402 -0.6225,1.6675 -1.62006,3.2988 -1.78497,5.0103 -0.29334,3.044 -0.0825,6.1367 -0.0825,9.209 -0.44122,0.2245 -0.88251,0.4489 -1.32373,0.6732 -4.13233,-6.6775 -8.78644,-13.0925 -12.30072,-20.0809 -11.34693,-22.56367 -17.18909,-46.64918 -19.45252,-71.77833 -1.42334,-15.80249 -0.51983,-31.25525 4.26508,-46.35309 2.67016,-8.42529 6.47156,-16.97797 16.19324,-18.59894 9.21606,-1.53674 15.44122,5.07251 20.89123,11.53113 12.35632,14.64288 18.52594,32.22784 22.85803,50.47857 5.31922,22.40979 6.83631,45.08686 1.96076,67.78726 -1.79022,8.3351 -4.71259,16.4272 -7.11853,24.63 -0.68939,-0.058 -1.37879,-0.1165 -2.06818,-0.1749 -0.99402,-4.2513 -1.82806,-8.5489 -3.03534,-12.7389 -0.88507,-3.0721 -2.45154,-4.874 -4.83166,-0.407 z"
     id="path55" /><path
     fill="#b87841"
     opacity="1"
     stroke="none"
     d="m 732.03394,965.86292 c -6.8949,-21.46638 -9.62708,-42.94831 -4.76874,-64.76746 1.4859,-6.67359 4.32355,-13.35852 7.92968,-19.17865 6.28431,-10.14258 16.33686,-11.73291 26.271,-4.99799 9.73548,6.60022 15.64636,16.30701 20.08997,26.80359 10.72064,25.32379 14.26037,51.52423 7.43109,78.4801 -1.67011,6.59211 -5.07471,12.74488 -7.68183,19.09959 -0.61724,-0.1405 -1.23449,-0.2809 -1.85174,-0.4214 -0.50647,-3.64474 -0.79047,-7.34182 -1.62921,-10.90847 -0.33435,-1.422 -1.89447,-2.55579 -2.89661,-3.8208 -0.62897,1.31793 -1.7232,2.60895 -1.80108,3.95868 -0.24897,4.31537 -0.38196,8.67187 -0.0614,12.97549 0.28772,3.8622 -1.51825,5.0116 -4.8891,5.0903 -3.12622,0.073 -5.44329,-0.2911 -5.54864,-4.4252 -0.11371,-4.46237 -0.8783,-8.92288 -1.60382,-13.34396 -0.16791,-1.02344 -1.32959,-1.88367 -2.03394,-2.81903 -0.7431,0.91858 -1.99231,1.763 -2.13977,2.76898 -0.57611,3.92755 -0.80353,7.90631 -1.28021,13.19281 -12.22736,-10.38934 -18.42847,-23.45343 -23.53564,-37.68658 z"
     id="path57" /><path
     fill="#494949"
     opacity="1"
     stroke="none"
     d="m 577.27563,916.3407 c 5.47821,-7.26148 11.66285,-12.87647 20.9502,-13.38349 8.23908,-0.44989 14.19647,4.034 19.28461,9.76526 7.87439,8.86969 11.73572,19.59644 13.5047,31.14374 1.9859,12.96393 1.66504,25.86279 -1.97437,38.5238 -3.20514,11.14991 -8.00397,21.38659 -18.44977,29.29159 -1.0401,-4.6514 -1.65728,-8.6659 -2.92004,-12.46578 -0.53619,-1.61334 -2.42627,-2.77673 -3.70105,-4.14459 -0.53369,1.67871 -1.48492,3.34942 -1.51733,5.03767 -0.0764,3.9747 0.4519,7.9612 0.36859,11.9353 -0.025,1.1888 -0.98224,2.9422 -1.99475,3.4248 -4.29151,2.0452 -11.33545,-2.0259 -12.04077,-6.825 -0.6756,-4.5971 -1.06342,-9.23812 -1.81116,-13.82186 -0.16443,-1.00793 -1.31354,-1.85528 -2.00922,-2.77655 -0.64319,0.96662 -1.67462,1.8656 -1.85706,2.91254 -0.56011,3.21362 -0.79492,6.48397 -1.18786,10.01737 -16.17304,-10.9531 -24.38715,-60.50181 -4.64472,-88.6348 z"
     id="path60" /><path
     fill="#494949"
     opacity="1"
     stroke="none"
     d="m 494.54895,938.63605 c 3.82355,-8.79401 9.30576,-15.78595 17.0708,-20.80548 10.60309,-6.85419 23.63287,-4.82477 31.89246,4.8681 9.54187,11.19763 12.20208,24.55786 11.36657,38.70251 -0.9234,15.6341 -5.8468,29.93244 -16.55151,41.72972 -2.11542,2.3312 -5.13055,3.846 -7.73071,5.7374 -0.8631,-2.932 -1.73816,-5.8605 -2.57727,-8.7994 -0.13483,-0.47204 0.0786,-1.16967 -0.19275,-1.45281 -0.81977,-0.85547 -1.79889,-1.55823 -2.71594,-2.3205 -0.71241,0.90436 -1.90455,1.7378 -2.05048,2.72583 -0.50812,3.43918 -0.90985,6.93498 -0.86816,10.40338 0.0453,3.7633 -2.19483,3.899 -4.89698,3.7957 -2.75573,-0.1053 -5.51654,-0.072 -5.401,-4.0732 0.0768,-2.6596 0.23383,-5.3842 -0.25839,-7.9626 -0.2243,-1.1752 -1.931,-2.06745 -2.96536,-3.08802 -0.87732,0.91736 -2.16321,1.69232 -2.54328,2.78302 -0.69897,2.0059 -0.86496,4.1974 -1.26037,6.3517 -14.9444,-7.81123 -23.37809,-42.20644 -10.31763,-68.59535 z"
     id="path61" /><path
     fill="#fbbed9"
     opacity="1"
     stroke="none"
     d="m 776.00195,771.98938 c 12.44599,3.37616 25.28583,5.73523 37.24561,10.36688 17.95843,6.95471 26.59259,22.73145 32.92737,39.77704 3.29486,8.86585 4.29174,18.07379 1.8717,27.4242 -1.72797,6.6762 -5.3634,12.122 -10.77948,16.32397 -6.66217,5.16858 -12.88104,4.8905 -17.59064,-2.13892 -4.28607,-6.39727 -7.58343,-13.61608 -10.3197,-20.84979 -3.04413,-8.0473 -4.75842,-16.58746 -7.45264,-24.78125 -1.38293,-4.2055 -3.63946,-8.12366 -5.27636,-12.62909 -0.11878,-1.82361 -0.0948,-3.45807 -0.86463,-4.51349 -5.93164,-8.13263 -14.2702,-13.46002 -22.63983,-18.62463 -3.08142,-1.90149 -6.75452,-2.84406 -10.31793,-4.50055 -1.38129,-0.43622 -2.60248,-0.59589 -3.82367,-0.75555 -0.53827,-0.21009 -1.07654,-0.42017 -1.61688,-1.17988 2.36944,-1.34906 4.6878,-2.47894 7.125,-2.87194 3.79498,-0.61194 7.67059,-0.72345 11.51208,-1.047 z"
     id="path63" /><path
     fill="#3c3c3c"
     opacity="1"
     stroke="none"
     d="m 698.85193,670.55188 c 0.85339,-0.80481 1.70673,-1.60968 2.89612,-2.13696 2.28973,-0.15662 4.27234,-0.49036 6.19177,-1.0434 6.2356,-1.79675 12.28192,-5.00507 18.79834,-2.0871 -4.12921,1.57837 -8.22705,2.45105 -11.76477,4.36115 -1.96179,1.05926 -2.98761,3.85205 -4.4353,5.86352 2.22918,1.16303 4.41497,3.22864 6.69488,3.3385 12.33283,0.59406 24.68909,0.85962 37.03705,0.85157 2.51874,-0.002 5.03644,-1.65869 7.55463,-2.55268 -1.37409,-1.93347 -2.74152,-3.87164 -4.12775,-5.79638 -0.28809,-0.39997 -0.64539,-0.75006 -0.56531,-1.18994 1.06885,-0.0624 1.81519,-0.25879 2.3833,-0.024 10.44019,4.31402 20.00611,9.93219 27.0022,19.07678 7.99799,10.45429 5.15222,21.30078 -2.56787,26.32953 -9.87579,6.43274 -21.29572,8.88092 -33.2016,6.81799 -6.66559,-1.15497 -13.24591,-2.80267 -19.86462,-4.22833 -0.41822,-0.0273 -0.83643,-0.0546 -1.76655,-0.39233 -7.38922,-4.2342 -14.24322,-8.20008 -21.17248,-12.02985 -0.89886,-0.49683 -2.18591,-0.2912 -3.29321,-0.41095 0,0 0.17712,0.025 0.17425,-0.3197 -2.29376,-3.74762 -4.62854,-7.12189 -6.86609,-10.55945 -4.22314,-6.48798 -3.78674,-14.21106 0.8335,-20.35742 0.56915,-0.7572 0.0659,-2.32068 0.0595,-3.5105 m 53.63068,51.01892 c 0,0 -0.0515,-0.091 0,0 z"
     id="path64" /><path
     fill="#494949"
     opacity="1"
     stroke="none"
     d="m 488.16132,903.77142 c -0.702,-3.67254 -1.40406,-7.34503 -1.84699,-11.55682 4.48056,-2.42658 8.70203,-4.31384 12.92349,-6.20117 -0.0899,-0.64124 -0.17987,-1.28247 -0.26983,-1.92371 -5.31147,-0.70221 -10.62296,-1.40442 -15.93442,-2.10663 -0.38886,-1.35907 -0.77774,-2.71814 -1.17731,-4.11468 8.51721,-1.6275 17.02442,-2.76825 25.25949,-4.94055 12.29422,-3.24317 24.39725,-7.21131 36.58005,-10.87635 1.42175,-0.42779 2.83344,-0.88928 5.01038,-1.26702 1.28936,0.1073 1.81805,0.14648 2.76721,0.22528 8.75006,0.70562 17.07965,1.37164 25.40924,2.03765 1.61835,3.76514 3.23669,7.53028 4.73541,11.89679 -4.18121,1.62744 -8.24273,2.65357 -12.30426,3.67963 -0.15838,0.47675 -0.31671,0.95349 -0.4751,1.43024 7.24976,4.35217 14.49958,8.7044 21.74933,13.05658 0.36585,1.7464 0.73169,3.4928 1.16699,5.57049 -8.18048,2.79206 -14.08996,8.39356 -19.73669,14.94861 -3.11951,-5.64661 -5.30505,-11.42157 -8.29431,-16.7453 -5.94409,-10.58612 -13.03095,-20.10596 -25.86365,-23.13525 -7.80743,-1.84302 -13.17499,0.53021 -14.61627,8.3399 -1.55103,8.40436 -1.47296,17.10932 -2.10565,25.68311 -10.54697,1.79644 -18.33618,8.32458 -26.06424,16.49432 -1.16919,-4.00268 -1.98349,-6.79041 -2.80478,-10.22729 2.90951,-3.33234 5.82602,-6.01557 8.74252,-8.6988 -0.0644,-0.52301 -0.12875,-1.04602 -0.19311,-1.56903 -4.21918,0 -8.43833,0 -12.6575,0 z"
     id="path65" /><path
     fill="#7b7d7a"
     opacity="1"
     stroke="none"
     d="m 521.58502,907.83105 c 0.1861,-8.63262 0.10803,-17.33758 1.65906,-25.74194 1.44128,-7.80969 6.80884,-10.18292 14.61627,-8.3399 12.8327,3.02929 19.91956,12.54913 25.86365,23.13525 2.98926,5.32373 5.1748,11.09869 7.992,16.89087 -3.46576,8.49432 -7.1997,16.7674 -10.89093,24.9458 -6.84417,-17.00323 -16.59161,-31.78943 -39.24005,-30.89008 z"
     id="path66" /><path
     fill="#2e251b"
     opacity="1"
     stroke="none"
     d="m 727.00354,665.01202 c -6.7818,-2.64557 -12.82812,0.56275 -19.06372,2.3595 -1.91943,0.55304 -3.90204,0.88678 -5.89838,0.99225 10.75269,-7.87384 23.10071,-8.33716 35.40351,-7.13709 16.45922,1.60553 31.74542,6.96387 44.85095,17.487 5.91406,4.74866 10.82678,10.26093 13.21142,17.70844 2.36524,7.38672 0.44642,14.76691 -5.38482,19.87659 -9.01453,7.89904 -20.06024,9.50781 -31.30109,9.07684 -8.05499,-0.30872 -16.04706,-2.25775 -24.4682,-3.47357 -1.38013,-1.05023 -2.35925,-2.10193 -3.4043,-3.46179 6.5528,1.11755 13.13312,2.76525 19.79871,3.92022 11.90588,2.06293 23.32581,-0.38525 33.2016,-6.81799 7.72009,-5.02875 10.56586,-15.87524 2.56787,-26.32953 -6.99609,-9.14459 -16.56201,-14.76276 -27.0022,-19.07678 -0.56811,-0.23474 -1.31445,-0.0383 -2.71728,-0.0945 -9.82599,-5.20337 -19.68293,-5.85834 -29.79407,-5.02961 z"
     id="path68" /><path
     fill="#0a0e11"
     opacity="1"
     stroke="none"
     d="m 590.97119,893.1825 c -7.63293,-4.42402 -14.88275,-8.77625 -22.13251,-13.12842 0.15839,-0.47675 0.31672,-0.95349 0.4751,-1.43024 4.06153,-1.02606 8.12305,-2.05219 12.44995,-3.35199 4.08734,-0.92627 6.37982,0.3844 7.63074,4.32605 1.19061,3.75159 3.27393,7.21283 4.85284,10.85034 1.43189,3.29901 0.17261,4.03552 -3.27612,2.73426 z"
     id="path69" /><path
     fill="#0a0e11"
     opacity="1"
     stroke="none"
     d="m 577.24365,862.97687 c -8.69061,-0.59546 -17.0202,-1.26148 -25.56616,-2.22699 1.63031,-1.45484 3.47699,-2.61011 5.32367,-3.76532 0,0 6.7e-4,0.0179 0.37103,0.0219 5.11029,-2.02191 9.85034,-4.04779 14.59039,-6.07373 2.18043,2.76379 4.52332,5.42242 6.42621,8.3656 0.47126,0.72888 -0.48443,2.38049 -1.14514,3.67853 z"
     id="path70" /><path
     fill="#c99aaf"
     opacity="1"
     stroke="none"
     d="m 762.96558,778.1203 c 3.40325,1.37994 7.07635,2.32251 10.15777,4.224 8.36963,5.16461 16.70819,10.492 22.63983,18.62463 0.76984,1.05542 0.74585,2.68988 0.74451,4.16303 -9.90021,-10.15997 -21.16254,-18.21283 -33.40204,-25.80493 -0.1701,-0.77997 -0.15509,-0.99335 -0.14007,-1.20673 z"
     id="path71" /><path
     fill="#0a0e11"
     opacity="1"
     stroke="none"
     d="m 482.71603,882.12439 c 5.629,0.56091 10.94049,1.26312 16.25196,1.96533 0.09,0.64124 0.1799,1.28247 0.26983,1.92371 -4.22146,1.88733 -8.44293,3.77459 -12.98904,5.81891 -3.91708,0.5202 -6.10291,-1.51001 -6.46249,-4.65399 -0.17365,-1.51813 1.67773,-3.26783 2.92974,-5.05396 z"
     id="path72" /><path
     fill="#0a0e11"
     opacity="1"
     stroke="none"
     d="m 487.93658,904.0694 c 4.44391,-0.29798 8.66306,-0.29798 12.88224,-0.29798 0.0644,0.52301 0.12872,1.04602 0.19311,1.56903 -2.9165,2.68323 -5.83301,5.36646 -8.89883,8.35303 -3.04941,0.1438 -5.5455,-0.34033 -6.21564,-3.95715 -0.42789,-2.30921 -1.44122,-4.45404 2.03912,-5.66693 z"
     id="path73" /><path
     fill="#c298ab"
     opacity="1"
     stroke="none"
     d="m 775.65723,771.8009 c -3.49677,0.51203 -7.37238,0.62354 -11.16736,1.23548 -2.4372,0.393 -4.75556,1.52288 -7.3114,2.64721 -4.44916,-1.62439 -8.71399,-3.5736 -12.97876,-5.52276 0.12134,-0.45819 0.24273,-0.91632 0.36413,-1.37451 10.24958,0.94207 20.49909,1.88409 31.09339,3.01458 z"
     id="path74" /><path
     fill="#2e251b"
     opacity="1"
     stroke="none"
     d="m 704.79102,705.59961 c 0.96704,-0.18091 2.25409,-0.38654 3.15295,0.11029 6.92926,3.82977 13.78326,7.79565 20.8595,11.99994 0.1604,1.13611 0.12176,1.99164 -0.16663,3.05347 -1.80188,-0.86329 -3.32208,-1.98304 -4.91174,-2.9936 -6.25269,-3.97515 -12.52735,-7.91589 -18.93408,-12.1701 z"
     id="path76" /><path
     fill="#2f3032"
     opacity="1"
     stroke="none"
     d="m 571.91467,850.60059 c -4.69214,2.35809 -9.43219,4.38397 -14.5509,6.40246 4.09802,-2.61603 8.5636,-5.2445 13.08624,-7.77093 0.21283,-0.11884 0.93286,0.67016 1.46466,1.36847 z"
     id="path77" /><path
     fill="#2f3032"
     opacity="1"
     stroke="none"
     d="m 556.6192,856.96063 c -1.46472,1.17914 -3.3114,2.33441 -5.36212,3.74957 -0.73285,0.22077 -1.26154,0.18159 -2.1731,0.0194 2.12922,-1.34631 4.64124,-2.56958 7.53522,-3.76892 z"
     id="path78" /><path
     fill="#c298ab"
     opacity="1"
     stroke="none"
     d="m 762.80542,777.84375 c 0.14514,0.48993 0.13013,0.70331 0.0756,1.23517 -1.23309,-0.25122 -2.42675,-0.82092 -3.75982,-1.69068 1.08172,-0.14038 2.30291,0.0193 3.6842,0.45551 z"
     id="path79" /><path
     fill="#602f8d"
     opacity="1"
     stroke="none"
     d="m 784.9491,503.34967 c 1.00189,-0.12988 2.281,0.0109 3.80304,0.44818 -1.01331,0.13843 -2.26953,-0.0195 -3.80304,-0.44818 z"
     id="path80" /><path
     fill="#602f8d"
     opacity="1"
     stroke="none"
     d="m 789.07593,504.32611 c 0.42303,-0.11832 0.99933,0.033 1.76111,0.42694 -0.41224,0.10935 -1.01014,-0.024 -1.76111,-0.42694 z"
     id="path82" /><path
     fill="#3796c5"
     opacity="1"
     stroke="none"
     d="m 317.78149,569.4184 c 0.1865,0.2741 0.0602,0.4707 -0.36694,0.61419 -0.21762,-0.27539 -0.0993,-0.48828 0.36694,-0.61419 z"
     id="path88" /><path
     fill="#b97e4c"
     opacity="1"
     stroke="none"
     d="m 667.49524,666.81744 c -13.79212,0.99231 -25.89404,-2.03033 -35.80371,-11.47509 -15.94452,-15.19648 -17.00592,-36.21351 -2.81928,-53.20105 16.9621,-20.31104 53.72907,-18.86005 68.70197,2.71136 14.78558,21.30145 6.51489,48.9328 -17.66852,58.58868 -3.82086,1.52564 -7.96753,2.2353 -12.41046,3.3761 m 17.85254,-23.25048 c 3.6206,-7.42597 1.45648,-14.86072 -5.14954,-17.69092 -6.35211,-2.72144 -13.40606,0.31622 -15.91894,6.85534 -1.88428,4.90314 0.14636,11.16388 4.5495,14.02759 5.36316,3.4881 10.69189,2.63025 16.51898,-3.19201 z"
     id="path97" /><path
     fill="#2b2218"
     opacity="1"
     stroke="none"
     d="m 823.50183,663.46869 c 5.93646,-4.01343 10.98981,-4.13171 15.39294,-0.59931 4.04029,3.24122 5.52454,9.1037 3.54102,13.98737 -1.82886,4.50311 -7.00732,7.60101 -12.0578,7.04749 -4.67328,-0.51221 -8.00561,-2.97638 -9.75268,-7.38013 -1.90717,-4.80701 -0.86518,-9.06732 2.87652,-13.05542 m 8.6582,1.0072 c -1.88269,-0.072 -3.97149,-0.64374 -5.55499,0.01 -0.71521,0.29505 -1.02692,3.33545 -0.40265,4.55945 0.51367,1.00702 3.70239,1.91187 3.93976,1.58392 1.1709,-1.61755 1.75385,-3.66064 2.01788,-6.15295 z"
     id="path98" /><path
     fill="#3b3328"
     opacity="1"
     stroke="none"
     d="m 698.55603,670.73724 c 0.30225,1.00446 0.80554,2.56794 0.23639,3.32514 -4.62024,6.14636 -5.05664,13.86944 -0.8335,20.35742 2.23755,3.43756 4.57233,6.81183 6.77973,10.58276 -6.66913,-5.01458 -11.35041,-11.44201 -11.80341,-20.33282 -0.27637,-5.42377 1.34137,-10.0199 5.62079,-13.9325 z"
     id="path99" /><path
     fill="#9e6e50"
     opacity="1"
     stroke="none"
     d="m 523.55188,528.65051 c 5.44488,-1.49658 10.80438,-2.20544 15.53845,-4.31665 12.59229,-5.61554 25.05658,-11.56109 37.3122,-17.87887 18.80218,-9.69245 37.93078,-13.14914 58.17547,-4.86188 2.18744,0.89545 4.62842,1.17148 6.95178,1.7348 0.004,0.45062 0.009,0.90125 0.0134,1.35187 -6.53717,1.1041 -13.04223,2.47858 -19.6178,3.25921 -16.61773,1.97281 -32.6759,5.47306 -48.18548,12.28324 -11.92139,5.23462 -23.63367,11.71301 -36.89142,13.21295 -5.75842,0.65155 -11.65192,0.10944 -17.48407,0.10944 -0.18854,-0.86341 -0.37708,-1.72675 -0.56555,-2.59015 1.46081,-0.71851 2.92163,-1.43708 4.75305,-2.30396 z"
     id="path100" /><path
     fill="#9e6e50"
     opacity="1"
     stroke="none"
     d="m 1009.1392,759.88251 c 0.3317,2.08337 0.5838,3.77575 0.9711,6.37671 -6.7568,-2.72229 -9.8031,-7.63929 -12.31574,-12.7367 -5.79621,-11.75921 -7.23322,-24.83844 -10.83307,-37.26745 -3.78382,-13.06446 -7.69654,-26.13916 -12.58155,-38.81293 -1.85992,-4.82532 -6.54168,-8.57977 -10.01214,-12.76026 -1.63916,-1.97461 -3.45447,-3.8031 -5.6463,-6.19592 14.77417,1.6388 27.88879,9.40686 32.11517,25.4776 2.35828,8.96729 5.00348,17.8678 7.05841,26.90326 1.42639,6.27167 1.70459,12.80536 3.14662,19.07227 2.0284,8.81555 4.6573,17.49316 7.037,26.22772 0.3037,1.11456 0.6527,2.2168 1.0605,3.7157 z"
     id="path101" /><path
     fill="#191717"
     opacity="1"
     stroke="none"
     d="m 464.22482,822.57221 c 0.77674,2.78588 1.47217,5.15203 2.21796,7.68951 19.90115,-1.0846 37.40952,-9.20111 55.24411,-16.42377 -27.34171,20.14288 -57.29669,28.53998 -90.91733,19.99298 -12.2753,-3.12066 -24.70434,-10.22015 -28.27411,-15.85815 18.24005,9.78515 37.6554,13.94934 58.44284,12.98236 -0.6419,-7.32269 -1.12387,-14.41101 -2.03396,-21.44397 -0.13263,-1.02484 -2.21506,-1.9787 -3.55674,-2.6358 -7.59851,-3.72138 -15.39303,-7.07367 -22.80709,-11.12574 -3.09815,-1.69323 -5.81955,-4.49316 -8.01905,-7.32782 -4.85077,-6.25152 -4.59729,-12.61511 0.5347,-18.6203 9.21387,-10.78167 21.30835,-16.19659 35.20386,-16.00634 9.17703,0.12561 18.66614,1.38049 27.41348,4.08038 19.30615,5.95886 16.26837,21.5152 5.8313,30.41614 -8.24704,7.03332 -18.17004,12.17907 -27.64648,17.64715 -2.94702,1.7005 -4.20771,3.13355 -3.48362,6.40198 0.71824,3.24213 1.18937,6.53888 1.85013,10.23139 m -2.40326,-19.89063 c 9.68476,-5.79254 19.98175,-10.78192 28.90055,-17.57941 11.34536,-8.64697 9.3305,-19.47107 -3.83673,-24.71423 -4.59775,-1.83075 -9.48435,-3.19592 -14.3664,-4.00617 -17.4696,-2.89923 -32.74008,1.29883 -44.42914,15.23548 -4.57254,5.45166 -4.55844,10.29541 0.47013,15.10675 9.0896,8.69671 20.44439,13.28271 33.26159,15.95758 z"
     id="path102" /><path
     fill="#2b241c"
     opacity="1"
     stroke="none"
     d="m 535.71167,736.95508 c -1.34351,7.43182 -4.79096,10.67541 -10.21277,10.02099 -5.0401,-0.60846 -8.70831,-5.51818 -8.36267,-11.19323 0.31818,-5.22577 3.84387,-9.07257 8.55365,-9.33301 5.3703,-0.29694 8.81983,3.18805 10.02179,10.50525 m -12.13464,0.0226 c 2.6015,-0.66956 3.68304,-2.33502 2.16644,-4.61414 -0.48993,-0.73626 -2.47022,-0.48071 -3.7688,-0.67889 0.26856,1.71948 0.53717,3.43903 1.60236,5.29303 z"
     id="path103" /><path
     fill="#2b241c"
     opacity="1"
     stroke="none"
     d="m 385.99774,742.90442 c 7.625,1.76562 10.91828,7.29834 8.65268,14.16614 -1.30963,3.97009 -4.2294,6.5354 -8.39868,6.63482 -4.42563,0.10553 -7.46231,-2.5473 -8.952,-6.64965 -1.64673,-4.53498 0.0121,-10.04688 3.72574,-12.43085 1.33951,-0.85974 3.03546,-1.16425 4.97226,-1.72046 m 1.30032,6.11871 c -2.01565,-1.83795 -3.95159,-1.93768 -4.97634,0.81543 -0.3006,0.80768 0.60568,2.86945 1.36651,3.12042 2.5745,0.84925 4.16565,-0.23999 3.60983,-3.93585 z"
     id="path104" /><path
     fill="#7b7d7a"
     opacity="1"
     stroke="none"
     d="m 267.71356,670.25049 c 9.03467,8.33233 17.78024,16.45453 26.62201,24.4707 2.57355,2.33319 3.17572,4.27332 1.27387,7.68128 -3.33527,5.97644 -5.83954,12.41662 -9.08973,19.53356 -6.53994,-10.26141 -12.71975,-19.76672 -18.69119,-29.40118 -3.40402,-5.49212 -6.46768,-11.19525 -9.68716,-16.80194 -0.0822,-0.14319 -0.27069,-0.26343 -0.28144,-0.40411 -0.27325,-3.58857 -0.52932,-7.17847 -0.78845,-10.76813 2.86991,1.23157 5.76471,2.40985 8.5922,3.73206 0.71002,0.33203 1.20413,1.12573 2.04989,1.95776 z"
     id="path105" /><path
     fill="#80898b"
     opacity="1"
     stroke="none"
     d="m 726.73816,665.28442 c 10.37652,-1.10113 20.23346,-0.44616 29.65399,4.82398 0.65936,0.49164 1.01666,0.84173 1.30475,1.2417 1.38623,1.92474 2.75366,3.86291 4.12775,5.79638 -2.51819,0.89399 -5.03589,2.55103 -7.55463,2.55268 -12.34796,0.008 -24.70422,-0.25751 -37.03705,-0.85157 -2.27991,-0.10986 -4.4657,-2.17547 -6.69488,-3.3385 1.44769,-2.01147 2.47351,-4.80426 4.4353,-5.86352 3.53772,-1.9101 7.63556,-2.78278 11.76477,-4.36115 z"
     id="path168" /><path
     fill="#2e251b"
     opacity="1"
     stroke="none"
     d="m 752.45685,721.52527 c -0.0258,-0.0455 0.0258,0.0455 0,0 z"
     id="path169" /><path
     fill="#e1dc30"
     opacity="1"
     stroke="none"
     d="m 930.276,491.22726 c 1.14075,0.51148 2.38733,1.32492 3.66046,2.47391 -1.16711,-0.5003 -2.3609,-1.33612 -3.66046,-2.47391 z"
     id="path171" /><path
     fill="#e1dc30"
     opacity="1"
     stroke="none"
     d="m 925.82544,487.45215 c 0.61005,0.10672 1.33685,0.50668 2.09631,1.25299 -0.63812,-0.089 -1.30883,-0.52442 -2.09631,-1.25299 z"
     id="path172" /><path
     fill="#e1dc30"
     opacity="1"
     stroke="none"
     d="m 920.77502,483.47308 c 0.84943,0.18119 1.83612,0.67258 2.89991,1.49323 -0.86951,-0.17487 -1.81604,-0.67893 -2.89991,-1.49323 z"
     id="path173" /><path
     fill="#e1dc30"
     opacity="1"
     stroke="none"
     d="m 917.94702,481.37912 c 0.5661,0.11011 1.26178,0.48871 2.01172,1.18747 -0.59119,-0.0929 -1.23669,-0.50592 -2.01172,-1.18747 z"
     id="path174" /><path
     fill="#e1dc30"
     opacity="1"
     stroke="none"
     d="m 934.06561,494.31354 c 0.55493,0.12887 1.20697,0.53341 1.90473,1.24762 -0.57209,-0.11753 -1.18982,-0.54471 -1.90473,-1.24762 z"
     id="path175" /><path
     fill="#e1dc30"
     opacity="1"
     stroke="none"
     d="m 928.06519,489.32037 c 0.55017,0.12134 1.21063,0.51557 1.93487,1.21659 -0.56567,-0.11005 -1.19507,-0.52689 -1.93487,-1.21659 z"
     id="path176" /><path
     fill="#e4da2f"
     opacity="1"
     stroke="none"
     d="m 337.28537,503.87103 c -0.0382,-0.43686 0.2027,-0.99655 0.75049,-1.64868 0.0474,0.44699 -0.21198,0.98645 -0.75049,1.64868 z"
     id="path177" /><path
     fill="#e4da2f"
     opacity="1"
     stroke="none"
     d="m 334.46594,506.36493 c 0.0861,-0.37802 0.46622,-0.84293 1.1698,-1.34305 -0.0763,0.39526 -0.47604,0.82571 -1.1698,1.34305 z"
     id="path178" /><path
     fill="#e1dc30"
     opacity="1"
     stroke="none"
     d="m 923.84955,485.52075 c 0.24591,-0.0746 0.56555,0.11566 0.92181,0.60169 -0.2583,0.0849 -0.55322,-0.12601 -0.92181,-0.60169 z"
     id="path179" /><path
     fill="#e4da2f"
     opacity="1"
     stroke="none"
     d="m 336.24286,504.90185 c -0.15567,-0.26562 0.0295,-0.52117 0.53009,-0.80178 0.0541,0.18643 -0.11411,0.46539 -0.53009,0.80178 z"
     id="path180" /><path
     fill="#e1dc30"
     opacity="1"
     stroke="none"
     d="m 936.74939,496.43649 c 0.22137,-0.076 0.58148,0.10727 1.02295,0.5961 -0.24054,0.0914 -0.56238,-0.12271 -1.02295,-0.5961 z"
     id="path181" /><path
     fill="#25acdf"
     opacity="1"
     stroke="none"
     d="m 941.01324,529.23413 c 0.22895,0.10663 0.47113,0.44745 0.71332,0.78827 -0.1203,0.0839 -0.2406,0.16785 -0.3609,0.25177 -0.11304,-0.26862 -0.22613,-0.53729 -0.35242,-1.04004 z"
     id="path182" /><path
     fill="#2b1f13"
     opacity="1"
     stroke="none"
     d="m 685.11169,643.87122 c -5.591,5.518 -10.91973,6.37585 -16.28289,2.88775 -4.40314,-2.86371 -6.43378,-9.12445 -4.5495,-14.02759 2.51288,-6.53912 9.56683,-9.57678 15.91894,-6.85534 6.60602,2.8302 8.77014,10.26495 4.91345,17.99518 m -13.84814,-7.93366 c 1.88232,-0.37231 3.93646,-0.42432 5.55322,-1.29163 0.56092,-0.30102 0.57422,-3.07653 -0.12713,-3.90582 -0.86255,-1.01977 -2.95203,-1.9259 -4.12879,-1.58008 -3.35034,0.98468 -3.33472,3.53046 -1.2973,6.77753 z"
     id="path183" /><path
     fill="#e1e0dc"
     opacity="1"
     stroke="none"
     d="m 832.42322,664.77557 c -0.52722,2.19263 -1.11017,4.23572 -2.28107,5.85327 -0.23737,0.32795 -3.42609,-0.5769 -3.93976,-1.58392 -0.62427,-1.224 -0.31256,-4.2644 0.40265,-4.55945 1.5835,-0.65332 3.6723,-0.0816 5.81818,0.2901 z"
     id="path184" /><path
     fill="#f6d8e2"
     opacity="1"
     stroke="none"
     d="m 461.45019,802.81335 c -12.44583,-2.80664 -23.80062,-7.39264 -32.89022,-16.08935 -5.02857,-4.81134 -5.04267,-9.65509 -0.47013,-15.10675 11.68906,-13.93665 26.95954,-18.13471 44.42914,-15.23548 4.88205,0.81025 9.76865,2.17542 14.3664,4.00617 13.16723,5.24316 15.18209,16.06726 3.83673,24.71423 -8.9188,6.79749 -19.21579,11.78687 -29.27192,17.71118 z"
     id="path185" /><path
     fill="#e1e0dc"
     opacity="1"
     stroke="none"
     d="m 523.17871,736.9104 c -0.66687,-1.78674 -0.93548,-3.50629 -1.20404,-5.22577 1.29858,0.19818 3.27887,-0.0574 3.7688,0.67889 1.5166,2.27912 0.43506,3.94458 -2.56476,4.54688 z"
     id="path186" /><path
     fill="#e1e0dc"
     opacity="1"
     stroke="none"
     d="m 387.45447,749.3855 c 0.39941,3.33349 -1.19174,4.42273 -3.76624,3.57348 -0.76083,-0.25097 -1.66711,-2.31274 -1.36651,-3.12042 1.02475,-2.75311 2.96069,-2.65338 5.13275,-0.45306 z"
     id="path187" /><path
     fill="#e1e0dc"
     opacity="1"
     stroke="none"
     d="m 670.98407,635.67529 c -1.75794,-2.9848 -1.77356,-5.53058 1.57678,-6.51526 1.17676,-0.34582 3.26624,0.56031 4.12879,1.58008 0.70135,0.82929 0.68805,3.6048 0.12713,3.90582 -1.61676,0.86731 -3.6709,0.91932 -5.8327,1.02936 z"
     id="path188" /></g>
<path
   style="display:none;fill:none;stroke:#602f8d;stroke-width:10.771;stroke-linecap:round;stroke-linejoin:round;stroke-dasharray:none;stroke-opacity:1"
   d="m 272.58741,780.80122 c 0,0 292.22294,-227.54119 765.78579,-26.56573"
   id="path189" /></svg>
